# xmcd
#
# Track frame offsets:
#	150
#	20427
#	41760
#	58473
#	76868
#	98357
#	120576
#	138392
#	160359
#	180430
#
# Disc length: 2653 seconds
#
# Revision: 1
# Processed by: cddbd v1.5.2PL0 Copyright (c) Steve Scherf et al.
# Submitted via: EZCDAudioConverter 8.0.2.1
#
DISCID=7a0a5b0a
DTITLE=Various Artist - st. Nguyễn Văn Chung. My Memories
DYEAR=2011
DGENRE=World Pop
TTITLE0=Thanh Ngọc - Cà phê đắng và mưa
TTITLE1=Phan Đình Tùng - Đêm về sáng
TTITLE2=Hiền Thục - Điều em lo sợ
TTITLE3=Nguyên Vũ - Trước biển bình yên
TTITLE4=Bảo Thy - Em đợi anh
TTITLE5=Đăng Khôi - Những giấc mơ em về
TTITLE6=Nam Cường - Điều tốt nhất cho em
TTITLE7=Nhật Tinh Anh, Khánh Ngọc - Yêu thương phai màu
TTITLE8=Cao Thái Sơn - Nếu em phải khóc
TTITLE9=The Men - Day thường xuân xanh biếc
EXTD=
EXTT0=
EXTT1=
EXTT2=
EXTT3=
EXTT4=
EXTT5=
EXTT6=
EXTT7=
EXTT8=
EXTT9=
PLAYORDER=
